<svg width="130" height="19" viewBox="0 0 130 19" fill="none" xmlns="http://www.w3.org/2000/svg">
<path d="M12.474 2.556V5.57H8.382V18H4.62V5.57H0.528V2.556H12.474ZM23.976 15.272H18.212L17.288 18H13.35L18.938 2.556H23.294L28.882 18H24.9L23.976 15.272ZM23.008 12.368L21.094 6.714L19.202 12.368H23.008ZM32.4748 4.448C31.8148 4.448 31.2721 4.25733 30.8468 3.876C30.4361 3.48 30.2308 2.996 30.2308 2.424C30.2308 1.83733 30.4361 1.35333 30.8468 0.971999C31.2721 0.575999 31.8148 0.377999 32.4748 0.377999C33.1201 0.377999 33.6481 0.575999 34.0588 0.971999C34.4841 1.35333 34.6968 1.83733 34.6968 2.424C34.6968 2.996 34.4841 3.48 34.0588 3.876C33.6481 4.25733 33.1201 4.448 32.4748 4.448ZM34.3448 5.724V18H30.5828V5.724H34.3448ZM58.323 2.556L54.297 18H49.743L47.279 7.836L44.727 18H40.173L36.257 2.556H40.283L42.505 13.798L45.255 2.556H49.391L52.031 13.798L54.275 2.556H58.323ZM69.8237 15.272H64.0597L63.1357 18H59.1977L64.7857 2.556H69.1417L74.7297 18H70.7477L69.8237 15.272ZM68.8557 12.368L66.9417 6.714L65.0497 12.368H68.8557ZM90.2464 18H86.4844L80.1924 8.474V18H76.4304V2.556H80.1924L86.4844 12.126V2.556H90.2464V18Z" fill="black"/>
<path d="M107.887 7.44C107.609 6.92667 107.205 6.538 106.677 6.274C106.164 5.99533 105.555 5.856 104.851 5.856C103.634 5.856 102.659 6.25933 101.925 7.066C101.192 7.858 100.825 8.92133 100.825 10.256C100.825 11.6787 101.207 12.7933 101.969 13.6C102.747 14.392 103.81 14.788 105.159 14.788C106.083 14.788 106.861 14.5533 107.491 14.084C108.137 13.6147 108.606 12.94 108.899 12.06H104.125V9.288H112.309V12.786C112.031 13.7247 111.554 14.5973 110.879 15.404C110.219 16.2107 109.376 16.8633 108.349 17.362C107.323 17.8607 106.164 18.11 104.873 18.11C103.348 18.11 101.984 17.78 100.781 17.12C99.5935 16.4453 98.6622 15.514 97.9875 14.326C97.3275 13.138 96.9975 11.7813 96.9975 10.256C96.9975 8.73067 97.3275 7.374 97.9875 6.186C98.6622 4.98333 99.5935 4.052 100.781 3.392C101.969 2.71733 103.326 2.38 104.851 2.38C106.699 2.38 108.254 2.82733 109.515 3.722C110.791 4.61667 111.635 5.856 112.045 7.44H107.887ZM121.697 18.154C120.245 18.154 118.911 17.8167 117.693 17.142C116.491 16.4673 115.53 15.5287 114.811 14.326C114.107 13.1087 113.755 11.7447 113.755 10.234C113.755 8.72333 114.107 7.36667 114.811 6.164C115.53 4.96133 116.491 4.02267 117.693 3.348C118.911 2.67333 120.245 2.336 121.697 2.336C123.149 2.336 124.477 2.67333 125.679 3.348C126.897 4.02267 127.85 4.96133 128.539 6.164C129.243 7.36667 129.595 8.72333 129.595 10.234C129.595 11.7447 129.243 13.1087 128.539 14.326C127.835 15.5287 126.882 16.4673 125.679 17.142C124.477 17.8167 123.149 18.154 121.697 18.154ZM121.697 14.722C122.929 14.722 123.912 14.3113 124.645 13.49C125.393 12.6687 125.767 11.5833 125.767 10.234C125.767 8.87 125.393 7.78467 124.645 6.978C123.912 6.15667 122.929 5.746 121.697 5.746C120.451 5.746 119.453 6.14933 118.705 6.956C117.972 7.76267 117.605 8.85533 117.605 10.234C117.605 11.598 117.972 12.6907 118.705 13.512C119.453 14.3187 120.451 14.722 121.697 14.722Z" fill="#00D19F"/>
</svg>
