<svg width="153" height="39" viewBox="0 0 153 39" fill="none" xmlns="http://www.w3.org/2000/svg">
<path d="M14.742 10.618V14.154H9.75V29H5.278V14.154H0.338V10.618H14.742ZM28.004 25.646H21.114L19.97 29H15.29L22.024 10.748H27.146L33.88 29H29.148L28.004 25.646ZM26.86 22.266L24.572 15.506L22.258 22.266H26.86ZM35.1922 10.41C35.1922 9.734 35.4349 9.17933 35.9202 8.746C36.4056 8.29533 37.0469 8.07 37.8442 8.07C38.6416 8.07 39.2829 8.29533 39.7682 8.746C40.2536 9.17933 40.4962 9.734 40.4962 10.41C40.4962 11.0687 40.2536 11.6233 39.7682 12.074C39.2829 12.5073 38.6416 12.724 37.8442 12.724C37.0469 12.724 36.4056 12.5073 35.9202 12.074C35.4349 11.6233 35.1922 11.0687 35.1922 10.41ZM40.0542 14.492V29H35.6082V14.492H40.0542ZM68.1098 10.618L63.7158 29H58.2038L55.2658 16.702L52.3018 29H46.7898L42.3958 10.618H47.2318L49.5978 23.93L52.8218 10.618H57.6838L60.9078 23.93L63.2998 10.618H68.1098ZM81.8322 25.646H74.9422L73.7982 29H69.1182L75.8522 10.748H80.9742L87.7082 29H82.9762L81.8322 25.646ZM80.6882 22.266L78.4002 15.506L76.0862 22.266H80.6882ZM105.764 29H101.318L93.8823 17.716V29H89.4363V10.618H93.8823L101.318 22.006V10.618H105.764V29Z" fill="white"/>
<path d="M122.646 10.436C124.951 10.436 126.849 10.9993 128.34 12.126C129.831 13.2527 130.758 14.778 131.122 16.702H126.416C126.104 16.0433 125.627 15.5233 124.986 15.142C124.345 14.7433 123.573 14.544 122.672 14.544C121.268 14.544 120.141 15.0207 119.292 15.974C118.443 16.91 118.018 18.184 118.018 19.796C118.018 21.5467 118.46 22.89 119.344 23.826C120.245 24.762 121.519 25.23 123.166 25.23C124.223 25.23 125.151 24.944 125.948 24.372C126.745 23.7827 127.309 22.9507 127.638 21.876H122.022V18.678H131.356V23.072C131.009 24.1467 130.455 25.1433 129.692 26.062C128.929 26.9807 127.95 27.726 126.754 28.298C125.575 28.87 124.223 29.156 122.698 29.156C120.843 29.156 119.223 28.766 117.836 27.986C116.449 27.1887 115.375 26.0793 114.612 24.658C113.867 23.2367 113.494 21.616 113.494 19.796C113.494 17.976 113.867 16.3553 114.612 14.934C115.375 13.5127 116.441 12.412 117.81 11.632C119.197 10.8347 120.809 10.436 122.646 10.436ZM142.581 10.332C144.314 10.332 145.883 10.7393 147.287 11.554C148.708 12.3513 149.826 13.4693 150.641 14.908C151.455 16.3293 151.863 17.9413 151.863 19.744C151.863 21.5467 151.447 23.1673 150.615 24.606C149.8 26.0447 148.682 27.1713 147.261 27.986C145.857 28.7833 144.297 29.182 142.581 29.182C140.865 29.182 139.296 28.7833 137.875 27.986C136.471 27.1713 135.353 26.0447 134.521 24.606C133.706 23.1673 133.299 21.5467 133.299 19.744C133.299 17.9413 133.706 16.3293 134.521 14.908C135.353 13.4693 136.471 12.3513 137.875 11.554C139.296 10.7393 140.865 10.332 142.581 10.332ZM142.581 14.466C141.125 14.466 139.963 14.9427 139.097 15.896C138.247 16.832 137.823 18.1147 137.823 19.744C137.823 21.356 138.247 22.6387 139.097 23.592C139.963 24.5453 141.125 25.022 142.581 25.022C144.019 25.022 145.172 24.5453 146.039 23.592C146.905 22.6387 147.339 21.356 147.339 19.744C147.339 18.132 146.905 16.8493 146.039 15.896C145.189 14.9427 144.037 14.466 142.581 14.466Z" fill="#00D19F"/>
<circle cx="38.5" cy="9.5" r="3.5" fill="#00D19F"/>
</svg>
